<?xml version="1.0" encoding="UTF-8"?>
<svg width="184px" height="64px" viewBox="0 0 184 64" version="1.1" xmlns="http://www.w3.org/2000/svg" xmlns:xlink="http://www.w3.org/1999/xlink">
    <!-- Generator: Sketch 51.2 (57519) - http://www.bohemiancoding.com/sketch -->
    <title>logo-5 copy</title>
    <desc>Created with Sketch.</desc>
    <defs></defs>
    <g id="Page-1" stroke="none" stroke-width="1" fill="none" fill-rule="evenodd">
        <g id="logo-5-copy" fill="#FFFFFF" fill-rule="nonzero">
            <path d="M181.496271,23.5616926 C180.412775,24.1016926 164.834226,34.1800662 162.053345,30.5800662 C163.739465,29.5000662 176.18044,23.0335677 168.759171,18.1455117 C163.104508,14.4210394 155.876151,17.3549051 153.356048,29.5000662 C152.656488,32.8714616 146.943104,37.3679608 143.557014,37.052056 C140.170925,36.7361512 135.835901,31.0011783 145.928218,26.4400662 C147.981945,25.9584947 148.635316,22.055525 145.928218,21.5863136 C143.280915,21.1274662 136.268798,25.1800662 131.955584,34.1800662 C131.160764,35.8385455 128.034617,40.9483158 126.048209,40.2283158 C124.242384,39.5083158 127.562496,31.76596 127.562496,29.5000662 C125.937254,28.9600662 123.02112,27.8800662 121.57646,30.5800662 C119.770635,34.0000662 116.740613,44.6500297 112.335528,43.8628388 C109.686489,43.8628388 112.335528,34.9000662 110.684573,34.1800662 C109.05933,33.4600662 106.949275,34.5400662 106.768693,34.9000662 C104.962868,38.1400662 102.456016,47.7836327 99.05266,47.1866401 C98.1316619,46.7987018 99.8518759,41.713203 100.393623,39.553203 C100.574206,38.473203 98.659915,37.052056 97.4817486,37.052056 C96.3890959,37.3336172 96.3592462,38.3885799 95.3919938,37.9600662 C91.9609258,36.1600662 89.3979141,38.6782061 87.5880493,40.6576997 C84.8867534,43.6121735 82.7234361,46.6855603 78.2294265,49.5567187 C77.5195045,44.8767187 70.3892666,39.5083158 69.6669365,40.2283158 C64.6106258,46.3483158 53.9092433,58.3595733 51.5037662,60.1445272 C49.0982891,61.9294812 52.2065544,64.0487737 54.8161325,63.1361083 C57.4257107,62.223443 60.21338,58.7025947 61.31286,57.9502971 C69.7009441,64.4234237 77.1121876,57.8670338 83.6308185,50.8882034 C84.1725661,55.2082034 85.4018995,57.3096983 89.5274544,56.1145094 C94.3211008,54.7257718 95.3919938,51.3725253 97.197819,52.7200662 C101.835789,53.8562318 104.285456,48.9898155 106.768693,46.2400662 C110.380343,52.7200662 115.654045,49.6944204 121.57646,43.8628388 C126.18325,49.5567187 131.955584,42.8200662 135.409452,37.9600662 C139.307466,42.3915525 145.284292,42.6644904 151.191994,38.8600662 C156.159136,35.6613408 156.159136,35.6613408 157.355999,34.9000662 C163.412316,40.2283158 179.001703,29.6800662 183.155101,26.4400662 C184.238596,26.2600662 182.579766,23.0216926 181.496271,23.5616926 Z M64.7605366,53.9884515 C67.1221433,50.9411845 68.95421,49.532503 70.5236617,47.6049257 C76.5020858,52.8605075 68.95421,58.8978473 64.7605366,53.9884515 Z M88.5016672,50.8376079 C87.2754275,48.6972707 91.5049586,39.5062016 95.3810988,42.6526047 C95.3810988,47.3674163 90.4018156,52.5713734 88.5016672,50.8376079 Z M158.866421,27.4498723 C158.085357,26.8679678 161.631249,18.7579004 165.126094,20.8371709 C168.620939,22.9164415 159.647485,28.0317768 158.866421,27.4498723 Z" id="Shape-Copy-2"></path>
            <path d="M132.136328,9.9752173 C131.200038,9.3440316 119.179063,19.0305935 115.024346,19.7967812 C112.911365,18.6271122 117.681484,15.3685887 115.024346,13.5685887 C112.367208,11.7685887 112.449031,14.1315416 110.513683,13.5685887 C108.578335,13.0056358 110.246899,11.3886544 109.819706,9.17050535 C108.873452,7.37050535 105.772724,5.03224688 102.368678,9.9752173 C101.465766,12.4952173 94.2444836,27.1764014 87.8144531,24.4489717 C91.8624405,22.2640272 101.019797,12.3237313 92.3082814,9.17050535 C83.5967655,6.01727937 77.8455851,14.7505054 78.6553559,22.6593921 C79.0602477,26.6138975 73.4823005,29.4664588 71.9401281,26.8331928 C70.3979557,24.1999267 70.7735626,12.8286544 73.4823005,11.3886544 C76.5522034,9.7686544 80.7804788,7.01050535 83.8503817,5.57050535 C84.0309642,5.03050535 83.0151146,2.92579582 82.5500884,2.51050535 C79.369702,3.41951101 74.5625206,6.242137 73.4823005,5.75050535 C72.4020803,5.2588737 74.3549447,1.41221947 73.4823005,0.0221554987 C72.5793878,-0.157844501 68.1383768,1.40429725 68.1383768,2.30429725 C67.8667417,4.67343674 68.3256642,5.97622085 67.3138951,7.37050535 C65.6351746,9.68389296 61.9042762,11.0584884 58.7494108,12.0692811 C56.9435856,12.6092811 56.7630031,15.1105054 57.6659157,16.5505054 C59.9622568,21.0958181 65.2503817,14.2105054 66.1532943,14.7505054 C67.056207,15.2905054 62.8016489,33.6058127 57.1613316,33.6058127 C55.5360889,32.7058127 57.3047507,28.2731928 57.6659157,26.8331928 C57.8464982,25.9331928 56.044755,23.656414 54.3178119,23.656414 C52.2534517,23.656414 53.3105388,26.1595445 50.7298308,25.0154769 C44.23625,23.8478965 38.5104415,25.6364724 33.1356088,29.4664588 C27.3324221,33.6016807 27.6469638,42.1739133 25.3940946,42.1739133 C23.2033703,42.1739133 24.6506797,34.9740957 20.3996414,34.1905054 C16.084106,33.8099172 12.8485694,44.0640012 11.0030061,44.0640012 C9.48987369,44.0640012 14.0161647,34.3852057 7.28339143,34.1905054 C4.03290599,34.1905054 0.0495430299,36.3881492 0.0495430299,38.5270806 C0.395336727,43.0590608 3.61765059,39.2060362 5.78464088,39.7460362 C5.42347583,41.1860362 2.68471043,52.4313884 9.89935035,52.4313884 C12.6118943,52.4313884 16.5468445,43.4914145 18.4575831,43.4914145 C20.3683216,43.4914145 21.5844245,50.4022306 26.6827309,49.332603 C31.1437711,48.3966743 32.4755772,33.9961357 40.7214216,31.390798 C38.0348227,36.0095951 37.5635757,39.0019262 40.2335089,42.1739133 C44.9615899,45.6946586 50.916044,39.7460362 52.2534517,38.5270806 C55.9544688,43.4914145 64.1023092,37.4071351 67.3138951,31.390798 C73.4823005,39.7460362 77.816271,31.5299086 82.5500884,28.3770371 C94.4741711,36.2884251 100.555464,22.3065999 105.413783,17.3475796 C106.072018,16.6757012 108.05714,17.9717297 108.05714,19.7967812 C108.05714,21.6218327 108.935997,26.2196225 112.029984,26.2196225 C116.009806,26.2196225 132.202844,15.0678963 133.171801,13.5685887 C134.140758,12.0692811 133.171801,10.6732661 132.136328,9.9752173 Z M45.0756009,38.0230986 C41.8140891,37.1056557 47.4936834,28.2237353 50.2687938,29.9972189 C53.5769657,32.111365 46.8479234,38.3327184 45.0756009,38.0230986 Z M84.3606886,21.1416637 C82.7024533,21.1416637 86.5185932,11.7016028 89.7927828,13.2418994 C93.0669725,14.7821961 85.7481249,21.9331914 84.3606886,21.1416637 Z" id="Shape-Copy"></path>
        </g>
    </g>
</svg>