<?xml version="1.0" encoding="UTF-8"?>
<svg width="184px" height="64px" viewBox="0 0 184 64" version="1.1" xmlns="http://www.w3.org/2000/svg" xmlns:xlink="http://www.w3.org/1999/xlink">
    <!-- Generator: Sketch 51.2 (57519) - http://www.bohemiancoding.com/sketch -->
    <title>logo-4 copy</title>
    <desc>Created with Sketch.</desc>
    <defs></defs>
    <g id="Page-1" stroke="none" stroke-width="1" fill="none" fill-rule="evenodd">
        <g id="logo-4-copy" fill="#FFFFFF" fill-rule="nonzero">
            <path d="M181.496271,23.5616926 C180.412775,24.1016926 164.834226,34.1800662 162.053345,30.5800662 C163.739465,29.5000662 175.206793,23.5580359 166.854817,16.6803724 C161.846103,12.5558099 155.876151,17.3549051 153.356048,29.5000662 C152.656488,32.8714616 146.943104,37.3679608 143.557014,37.052056 C140.170925,36.7361512 135.835901,31.0011783 145.928218,26.4400662 C147.981945,25.9584947 148.635316,22.055525 145.928218,21.5863136 C143.280915,21.1274662 136.268798,25.1800662 131.955584,34.1800662 C131.160764,35.8385455 128.034617,40.9483158 126.048209,40.2283158 C124.242384,39.5083158 127.562496,31.76596 127.562496,29.5000662 C125.937254,28.9600662 123.02112,27.8800662 121.57646,30.5800662 C119.770635,34.0000662 116.740613,44.6500297 112.335528,43.8628388 C109.686489,43.8628388 112.335528,34.9000662 110.684573,34.1800662 C109.05933,33.4600662 106.949275,34.5400662 106.768693,34.9000662 C104.962868,38.1400662 102.456016,47.7836327 99.05266,47.1866401 C98.1316619,46.7987018 99.8518759,41.713203 100.393623,39.553203 C100.574206,38.473203 98.659915,37.052056 97.4817486,37.052056 C96.3890959,37.3336172 96.3592462,38.3885799 95.3919938,37.9600662 C91.9609258,36.1600662 89.3979141,38.6782061 87.5880493,40.6576997 C84.8867534,43.6121735 82.7234361,46.6855603 78.2294265,49.5567187 C77.5195045,44.8767187 70.3892666,39.5083158 69.6669365,40.2283158 C64.6106258,46.3483158 54.3984582,59.6667509 51.528795,60.3766705 C48.6591317,61.0865902 52.2065544,64.0487737 54.8161325,63.1361083 C57.4257107,62.223443 60.21338,58.7025947 61.31286,57.9502971 C69.7009441,64.4234237 77.1121876,57.8670338 83.6308185,50.8882034 C84.1725661,55.2082034 85.4018995,57.3096983 89.5274544,56.1145094 C94.3211008,54.7257718 95.3919938,51.3725253 97.197819,52.7200662 C101.835789,53.8562318 104.285456,48.9898155 106.768693,46.2400662 C110.380343,52.7200662 115.654045,49.6944204 121.57646,43.8628388 C126.18325,49.5567187 131.955584,42.8200662 135.409452,37.9600662 C139.307466,42.3915525 145.284292,42.6644904 151.191994,38.8600662 C156.159136,35.6613408 156.159136,35.6613408 157.355999,34.9000662 C163.412316,40.2283158 179.001703,29.6800662 183.155101,26.4400662 C184.238596,26.2600662 182.579766,23.0216926 181.496271,23.5616926 Z M64.5438028,54.4344006 C66.9054096,51.3871336 69.0495635,49.3626698 70.6190153,47.4350925 C77.500652,51.9141213 70.0152132,58.9477755 64.5438028,54.4344006 Z M88.5016672,50.8376079 C87.2754275,48.6972707 91.5049586,39.5062016 95.3810988,42.6526047 C95.3810988,47.3674163 90.4018156,52.5713734 88.5016672,50.8376079 Z M158.003862,27.4426192 C157.222799,26.8607147 162.550831,17.4598494 164.497511,20.7526053 C166.44419,24.0453613 158.784926,28.0245237 158.003862,27.4426192 Z" id="Shape-Copy-2"></path>
            <path d="M132.136328,9.9752173 C130.511085,10.3352173 120.351898,17.6912881 116.017917,19.1312881 C115.295587,19.3112881 113.483749,20.2112881 112.942001,19.1312881 C111.911139,18.0512881 116.826239,13.1886544 114.169101,11.3886544 C111.511963,9.5886544 111.806114,10.9892811 109.819706,12.0692811 C108.013881,13.1492811 106.96586,12.5251639 107.461114,8.37207716 C107.461114,6.57207716 102.513395,3.54787644 100.35808,9.17050535 C99.455167,11.6905054 94.2444836,27.1764014 87.8144531,24.4489717 C91.8624405,22.2640272 101.273413,10.5237313 92.5618976,7.37050535 C83.8503817,4.21727937 79.2450735,14.7505054 78.5751362,21.306555 C78.1710393,25.261073 74.4682834,28.2731928 71.9401281,26.8331928 C69.4119727,25.3931928 70.7735626,12.8286544 73.4823005,11.3886544 C76.5522034,9.7686544 80.7804788,7.01050535 83.8503817,5.57050535 C84.0309642,5.03050535 83.0151146,2.92579582 82.5500884,2.51050535 C79.369702,3.41951101 74.5625206,6.242137 73.4823005,5.75050535 C72.4020803,5.2588737 74.3549447,1.41221947 73.4823005,0.0221554987 C72.5793878,-0.157844501 68.1383768,1.40429725 68.1383768,2.30429725 C67.8667417,4.67343674 68.3256642,5.97622085 67.3138951,7.37050535 C65.6351746,9.68389296 61.9042762,11.0584884 58.7494108,12.0692811 C56.9435856,12.6092811 56.7630031,15.1105054 57.6659157,16.5505054 C59.9622568,21.0958181 65.2503817,14.2105054 66.1532943,14.7505054 C67.056207,15.2905054 62.8016489,33.6058127 57.1613316,33.6058127 C55.5360889,32.7058127 57.3047507,28.2731928 57.6659157,26.8331928 C57.8464982,25.9331928 54.678977,23.656414 54.3178119,23.656414 C53.0708906,23.656414 53.3105388,26.1595445 50.7298308,25.0154769 C44.23625,23.8478965 38.5104415,25.6364724 33.1356088,29.4664588 C27.3324221,33.6016807 27.6469638,42.1739133 25.3940946,42.1739133 C23.2033703,42.1739133 24.6506797,34.9740957 20.3996414,34.1905054 C16.084106,33.8099172 12.8485694,44.0640012 11.0030061,44.0640012 C9.48987369,44.0640012 14.0161647,34.3852057 7.28339143,34.1905054 C4.03290599,34.1905054 0.0495430299,36.3881492 0.0495430299,38.5270806 C0.395336727,43.0590608 3.61765059,39.2060362 5.78464088,39.7460362 C5.42347583,41.1860362 2.68471043,52.4313884 9.89935035,52.4313884 C12.6118943,52.4313884 16.5468445,43.4914145 18.4575831,43.4914145 C20.3683216,43.4914145 21.5844245,50.4022306 26.6827309,49.332603 C31.1437711,48.3966743 32.4755772,33.9961357 40.7214216,31.390798 C38.0348227,36.0095951 37.5635757,39.0019262 40.2335089,42.1739133 C44.9615899,45.6946586 50.916044,39.7460362 52.2534517,38.5270806 C55.9544688,43.4914145 64.1023092,37.4071351 67.3138951,31.390798 C73.4823005,36.6843523 77.816271,31.390798 82.5500884,28.2379264 C94.4741711,36.1493144 100.959286,21.7361421 103.916051,16.5505054 C104.942381,14.7505054 108.04784,17.3351911 107.461114,19.1312881 C106.874389,20.9273852 108.04784,26.2196225 111.141827,26.2196225 C114.313039,26.2196225 131.948518,15.5400542 134.468578,12.6447316 C134.468578,10.5611111 133.942153,9.4352173 132.136328,9.9752173 Z M45.0756009,38.0230986 C41.8140891,37.1056557 47.4936834,28.2237353 50.2687938,29.9972189 C53.5769657,32.111365 46.8479234,38.3327184 45.0756009,38.0230986 Z M83.9523233,21.2914521 C82.294088,21.2914521 86.83432,9.92561849 90.5549093,11.5646704 C94.2754987,13.2037222 85.3397596,22.0829797 83.9523233,21.2914521 Z" id="Shape-Copy"></path>
        </g>
    </g>
</svg>