<?xml version="1.0" encoding="UTF-8" standalone="no"?>
<svg width="378px" height="59px" viewBox="0 0 378 59" version="1.1" xmlns="http://www.w3.org/2000/svg" xmlns:xlink="http://www.w3.org/1999/xlink">
    <!-- Generator: Sketch 43.2 (39069) - http://www.bohemiancoding.com/sketch -->
    <title>Datanyze Logo</title>
    <desc>Datanyze logo in white</desc>
    <defs></defs>
    <g id="Page-1" stroke="none" stroke-width="1" fill="none" fill-rule="evenodd">
        <g id="logo-white" fill-rule="nonzero">
            <path d="M49.607,5.896 C47.692,2.805 43.986,0.318 37.469,0.318 L19.055,0.318 C16.233,0.318 14.313,1.595 13.424,2.335 C11.365,4.083 10.707,6.098 10.193,7.846 L0.349,41.376 C-0.42,43.998 0.24,45.409 0.918,46.081 C1.174,46.35 2.289,47.356 5.784,47.356 L24.87,47.356 C32.261,47.356 37.126,44.062 39.737,41.577 C45.067,36.47 47.771,28.406 49.27,23.3 C50.926,17.654 52.697,10.935 49.607,5.896 Z M40.328,22.628 C37.98,30.624 35.745,34.12 34.068,35.935 C31.086,39.227 27.544,40.304 22.638,40.304 L12.425,40.304 C11.619,40.304 10.745,40.304 10.338,39.63 C9.882,38.892 10.206,38.017 10.483,37.076 L18.374,10.195 C18.669,9.187 19.35,8.248 20.006,7.843 C20.749,7.372 21.689,7.372 22.227,7.372 L31.433,7.372 C34.593,7.372 38.648,7.976 40.507,10.8 C42.555,13.892 41.51,18.596 40.328,22.628 Z M79.947,11.742 L59.72,11.742 L57.945,17.79 L75.484,17.79 C76.695,17.79 78.181,17.991 78.861,19.335 C79.419,20.411 79.199,21.62 78.882,22.694 L78.153,25.18 L62.696,25.18 C60.814,25.18 58.355,25.315 55.564,27.264 C52.187,29.617 50.923,32.775 49.996,35.934 C49.227,38.555 48.087,43.123 50.246,45.61 C51.75,47.358 54.235,47.358 56.184,47.358 L73.187,47.358 C74.867,47.358 76.854,47.224 78.506,45.948 C80.157,44.672 80.883,42.653 81.257,41.377 L86.684,22.897 C87.848,18.934 87.554,16.043 86.529,14.499 C85.411,12.816 82.971,11.742 79.947,11.742 Z M73.969,39.428 C73.813,39.966 73.674,40.436 72.999,40.907 C72.343,41.31 71.604,41.31 71.132,41.31 L60.179,41.31 C59.171,41.31 58.321,40.772 57.941,40.233 C57.296,39.225 57.714,37.347 58.03,36.27 C58.778,33.718 59.659,32.775 60.027,32.438 C61.236,31.297 62.734,31.229 63.272,31.229 L76.376,31.229 L73.969,39.428 Z M99.274,39.763 C97.542,37.882 98.73,34.524 99.44,32.103 L103.642,17.791 L113.588,17.791 L115.363,11.743 L105.417,11.743 L108.771,0.317 L100.908,0.317 L97.555,11.743 L92.65,11.743 L90.874,17.791 L95.78,17.791 L90.512,35.731 C89.19,40.233 89.697,42.856 91.429,44.737 C93.113,46.55 95.43,47.357 100.202,47.357 L105.107,47.357 L106.882,41.31 L104.933,41.31 C103.524,41.311 100.587,41.243 99.274,39.763 Z M140.16,11.742 L119.933,11.742 L118.158,17.79 L135.696,17.79 C136.907,17.79 138.394,17.991 139.073,19.335 C139.63,20.411 139.411,21.62 139.094,22.694 L138.365,25.18 L122.907,25.18 C121.025,25.18 118.566,25.315 115.777,27.264 C112.399,29.617 111.136,32.775 110.209,35.934 C109.438,38.555 108.299,43.123 110.459,45.61 C111.962,47.358 114.448,47.358 116.397,47.358 L133.4,47.358 C135.08,47.358 137.068,47.224 138.72,45.948 C140.372,44.671 141.098,42.653 141.472,41.377 L146.898,22.897 C148.062,18.934 147.767,16.043 146.743,14.499 C145.625,12.816 143.184,11.742 140.16,11.742 Z M134.182,39.428 C134.025,39.966 133.887,40.436 133.211,40.907 C132.555,41.31 131.814,41.31 131.344,41.31 L120.391,41.31 C119.383,41.31 118.533,40.772 118.154,40.233 C117.509,39.225 117.927,37.347 118.243,36.27 C118.991,33.718 119.873,32.775 120.241,32.438 C121.449,31.297 122.948,31.229 123.485,31.229 L136.589,31.229 L134.182,39.428 Z M374.104,15.148 C371.296,14.396 368.415,16.062 367.665,18.87 C367.469,19.599 367.442,20.331 367.552,21.031 L352.542,32.136 C352.423,32.094 352.313,32.035 352.188,32.002 C351.042,31.694 349.893,31.808 348.873,32.219 L335.679,23.357 C335.804,20.933 334.232,18.669 331.792,18.014 C328.987,17.262 326.101,18.927 325.351,21.732 C325.181,22.363 325.15,22.996 325.21,23.609 L313.058,32.968 C312.796,32.849 312.531,32.737 312.246,32.659 C309.437,31.908 306.555,33.574 305.8,36.381 C305.052,39.185 306.719,42.069 309.524,42.823 C312.329,43.57 315.212,41.909 315.964,39.101 C316.104,38.578 316.134,38.054 316.113,37.539 L328.54,27.971 C328.716,28.039 328.884,28.122 329.07,28.172 C330.281,28.497 331.5,28.349 332.562,27.874 L345.601,36.63 C345.382,39.125 346.965,41.492 349.464,42.161 C352.271,42.912 355.155,41.247 355.907,38.442 C356.094,37.747 356.13,37.046 356.038,36.374 L371.126,25.211 C371.214,25.239 371.292,25.284 371.382,25.308 C374.187,26.059 377.073,24.395 377.823,21.589 C378.575,18.784 376.909,15.901 374.104,15.148 Z" id="Shape" fill="#FFFFFF"></path>
            <g id="Group" transform="translate(145.000000, 11.000000)" fill="#4EB6D9">
                <path d="M141.955,36.358 L143.728,30.311 L126.325,30.311 C123.435,30.311 120.261,29.908 120.378,26.077 C120.423,25.003 120.895,22.72 121.348,21.171 L142.046,21.171 C143.456,21.171 144.879,20.903 146.272,19.828 C148.182,18.349 148.998,16.266 149.53,14.453 C150.85,9.95 151.28,5.515 147.884,2.892 C145.2,0.809 140.962,0.606 136.792,0.606 C133.435,0.606 127.386,0.606 122.502,3.967 C117.618,7.328 115.841,12.233 113.89,18.885 C112.509,23.59 111.269,28.496 112.634,31.856 C114.367,36.022 118.57,36.358 122.201,36.358 L141.955,36.358 L141.955,36.358 Z M123.123,15.123 C123.88,12.771 124.386,10.819 126.529,9.008 C129.39,6.589 132.597,6.655 134.681,6.655 C136.898,6.655 139.412,6.791 140.926,8.268 C141.814,9.142 142.461,10.82 141.81,13.039 C141.535,13.978 140.998,15.122 139.454,15.122 L123.123,15.122 L123.123,15.123 Z" id="Shape"></path>
                <path d="M0.095,36.358 L7.957,36.358 L16.085,8.672 C16.222,8.202 16.381,7.663 16.921,7.193 C17.443,6.791 17.914,6.791 18.384,6.791 L26.381,6.791 C29.271,6.791 30.687,7.463 31.394,8.94 C32.177,10.62 31.71,12.906 31.019,15.256 L24.825,36.357 L32.687,36.357 L39.573,12.904 C41.012,7.998 40.19,5.311 38.801,3.631 C36.727,1.076 33.399,0.742 29.704,0.742 L17.137,0.742 C15.592,0.742 13.192,0.674 11.22,2.353 C9.81,3.497 9.269,5.108 8.954,6.183 L0.095,36.358 Z" id="Shape"></path>
                <polygon id="Shape" points="83.827 0.875 75.83 0.875 55.743 28.092 52.349 0.742 44.218 0.742 49.657 36.222 40.802 47.847 48.802 47.847"></polygon>
                <path d="M108.449,30.311 L88.154,30.311 C87.884,30.311 87.53,30.376 87.646,29.974 C87.726,29.705 88.005,29.436 88.443,29.099 L112.505,10.081 C113.811,9.074 115.219,7.933 116.012,5.245 C116.838,2.421 115.45,0.742 112.699,0.742 L87.495,0.742 L85.72,6.79 L105.144,6.79 C105.681,6.79 105.714,7.126 105.654,7.328 C105.619,7.462 105.491,7.663 104.883,8.134 L81.218,26.479 C79.656,27.69 78.088,28.899 77.299,31.586 C75.958,36.157 79.728,36.357 80.937,36.357 L106.675,36.357 L108.449,30.311 Z" id="Shape"></path>
            </g>
        </g>
    </g>
</svg>